<svg xmlns="http://www.w3.org/2000/svg" width="58" height="55" viewBox="0 0 58 55">
  <g id="Raggruppa_60" data-name="Raggruppa 60" transform="translate(-1988 2058)">
    <ellipse id="Ellisse_29" data-name="Ellisse 29" cx="29" cy="27.5" rx="29" ry="27.5" transform="translate(1988 -2058)" fill="#fff"/>
    <g id="Raggruppa_54" data-name="Raggruppa 54" transform="translate(9.983 287.781)">
      <path id="Icon_simple-adobexd" data-name="Icon simple-adobexd" d="M16.458.45H3.542A3.585,3.585,0,0,0,0,4.082V16.818A3.585,3.585,0,0,0,3.542,20.45H16.458A3.585,3.585,0,0,0,20,16.818V4.082A3.585,3.585,0,0,0,16.458.45Zm2.7,16.034a3.138,3.138,0,0,1-.878,2.2,2.982,2.982,0,0,1-2.138.913H3.858a3.07,3.07,0,0,1-3.025-3.1V4.407A3.07,3.07,0,0,1,3.858,1.3H16.133a3.065,3.065,0,0,1,3.025,3.1ZM7.908,9.809l2.333,4.6c.042.068.017.137-.05.137H8.742a.163.163,0,0,1-.175-.111c-.533-1.128-1.075-2.256-1.633-3.47H6.917c-.5,1.145-1.05,2.35-1.583,3.479a.16.16,0,0,1-.15.094H3.808c-.083,0-.092-.068-.05-.12L6.042,9.954,3.833,5.441c-.05-.068,0-.12.05-.12H5.317a.131.131,0,0,1,.15.094c.525,1.128,1.058,2.291,1.558,3.427h.017c.483-1.128,1.017-2.3,1.533-3.419.042-.068.067-.111.15-.111h1.342c.067,0,.092.051.05.12ZM10.65,11.2a3.306,3.306,0,0,1,3.342-3.547,3.6,3.6,0,0,1,.433.017V5.407a.085.085,0,0,1,.083-.085h1.317c.067,0,.083.026.083.068v7.846a6.242,6.242,0,0,0,.042.838c0,.051-.017.068-.067.094a4.861,4.861,0,0,1-2.133.5C11.942,14.672,10.65,13.527,10.65,11.2Zm3.775-2.188a1.232,1.232,0,0,0-.483-.085c-1.05,0-1.783.829-1.783,2.205,0,1.573.75,2.205,1.692,2.205a1.537,1.537,0,0,0,.575-.094V9.014Z" transform="translate(1985.961 -2337.063)" fill="#d500b2"/>
      <path id="Icon_simple-adobephotoshop" data-name="Icon simple-adobephotoshop" d="M0,.45v20H20V.45ZM.833,1.3H19.167V19.6H.833Zm4,3.829c0-.057.117-.1.187-.1.537-.028,1.323-.043,2.148-.043,2.31,0,3.208,1.3,3.208,2.962,0,2.171-1.535,3.1-3.418,3.1-.317,0-.425-.015-.646-.015v3.284c0,.071-.028.1-.1.1H4.93c-.069,0-.1-.026-.1-.1V5.134Zm1.479,4.54c.192.014.343.014.675.014.975,0,1.892-.352,1.892-1.706,0-1.085-.655-1.636-1.768-1.636-.33,0-.646.014-.8.028v3.3Zm7.173-1.015c-.66,0-.88.338-.88.621,0,.31.15.521,1.031.987,1.307.65,1.718,1.269,1.718,2.185a2.109,2.109,0,0,1-2.392,2.1,3.565,3.565,0,0,1-1.708-.368c-.054-.028-.067-.07-.067-.141V12.792c0-.085.04-.114.095-.072a3.014,3.014,0,0,0,1.677.508c.66,0,.935-.282.935-.663,0-.31-.192-.579-1.031-1.03-1.183-.581-1.678-1.171-1.678-2.16a2.066,2.066,0,0,1,2.3-2.017,3.8,3.8,0,0,1,1.5.239.188.188,0,0,1,.083.169V8.937c0,.071-.042.114-.125.085a2.925,2.925,0,0,0-1.453-.368Z" transform="translate(1995.961 -2320.325)" fill="#10f" opacity="0.5"/>
      <path id="Icon_simple-adobelightroomcc" data-name="Icon simple-adobelightroomcc" d="M16.458.45H3.542A3.585,3.585,0,0,0,0,4.082V16.818A3.585,3.585,0,0,0,3.542,20.45H16.458A3.585,3.585,0,0,0,20,16.818V4.082A3.585,3.585,0,0,0,16.458.45Zm2.7,16.034a3.138,3.138,0,0,1-.878,2.2,2.982,2.982,0,0,1-2.138.913H3.858A3.072,3.072,0,0,1,.833,16.484V4.416A3.072,3.072,0,0,1,3.858,1.3H16.133a3.065,3.065,0,0,1,3.025,3.1ZM5.542,14.407c-.1,0-.125-.043-.125-.128V5.091c0-.068.025-.111.1-.111H6.833c.067,0,.083.026.083.1V13H10.35c.067,0,.092.026.075.1l-.208,1.214a.119.119,0,0,1-.125.1H5.542v-.009Zm6.25-5.538c0-.1,0-.35-.042-.829a.1.1,0,0,1,.067-.111,8.575,8.575,0,0,1,3.067-.59c.067,0,.1.017.1.085V8.655c0,.068-.025.085-.1.085a4.787,4.787,0,0,0-1.592.171V14.3c0,.068-.025.1-.1.1H11.883c-.067,0-.1-.026-.1-.1V8.869Z" transform="translate(2012.004 -2330.325)" fill="#0080ff"/>
    </g>
  </g>
</svg>
