<svg xmlns="http://www.w3.org/2000/svg" width="58" height="55" viewBox="0 0 58 55">
  <g id="Raggruppa_56" data-name="Raggruppa 56" transform="translate(-1988 2202)">
    <ellipse id="Ellisse_25" data-name="Ellisse 25" cx="29" cy="27.5" rx="29" ry="27.5" transform="translate(1988 -2202)" fill="#fff"/>
    <path id="Icon_awesome-css3-alt" data-name="Icon awesome-css3-alt" d="M0,2.25,2.454,30.08,13.5,33.75l11.046-3.67L27,2.25ZM22.015,7.875,21.677,11.2,13.57,14.667l-.021.007h7.84l-.9,10.308L13.584,27,6.638,24.947l-.45-5.2H9.626l.225,2.693,3.7.935L17.4,22.3l.26-4.331L5.963,17.93v-.007l-.014.007L5.7,14.674l7.882-3.284.457-.19H5.393L4.985,7.875Z" transform="translate(2000.944 -2193.75)" fill="#157ade"/>
    <path id="Icon_awesome-sass" data-name="Icon awesome-sass" d="M9.334,11.544C9.325,11.561,9.316,11.575,9.334,11.544Zm7.7-2.5a4.316,4.316,0,0,0-1.794.388,3.405,3.405,0,0,1-.4-.864,2.144,2.144,0,0,1-.034-.726,5.782,5.782,0,0,1,.235-.781c0-.032-.043-.189-.442-.192s-.742.072-.782.169a3.33,3.33,0,0,0-.164.548,12.977,12.977,0,0,1-1.209,2.162,1.955,1.955,0,0,1-.309-1.358,5.782,5.782,0,0,1,.235-.781c0-.032-.043-.189-.442-.192s-.742.072-.782.169-.083.327-.164.548-1.048,2.219-1.3,2.739c-.13.264-.241.477-.322.62-.012.023-.022.037-.028.049.009-.014.015-.029.015-.023-.068.123-.108.192-.108.192v0c-.053.092-.111.175-.139.175a1.108,1.108,0,0,1,.009-.571c.145-.695.489-1.774.486-1.811,0-.02.065-.207-.226-.307a.383.383,0,0,0-.408.063c-.025,0-.043.057-.043.057S9.232,8.1,8.32,8.1A2.738,2.738,0,0,0,6.57,9.21c-.244.123-.773.39-1.33.675l-.64.327c-.015-.014-.028-.029-.043-.043C3.45,9.072,1.407,8.3,1.493,6.824c.031-.537.232-1.946,3.93-3.657,3.031-1.4,5.453-1.016,5.871-.161.6,1.22-1.3,3.491-4.443,3.818a2.492,2.492,0,0,1-1.988-.468c-.164-.169-.189-.178-.25-.146-.1.052-.037.2,0,.29a1.837,1.837,0,0,0,1.138.83,6.461,6.461,0,0,0,3.685-.339c1.91-.683,3.4-2.586,2.962-4.18C11.953,1.192,9.061.661,6.326,1.562a14.053,14.053,0,0,0-4.659,2.48C.162,5.351-.079,6.491.02,6.968c.352,1.691,2.863,2.793,3.867,3.608l-.139.072c-.5.233-2.418,1.163-2.9,2.144a1.4,1.4,0,0,0,.5,2.021,3.2,3.2,0,0,0,3.327-1.252,2.915,2.915,0,0,0,.3-2.856c0-.009-.009-.014-.012-.023.13-.072.263-.144.4-.215.256-.141.507-.27.726-.382a4.182,4.182,0,0,0-.26,1.223,2.422,2.422,0,0,0,.591,1.771.683.683,0,0,0,.476.144c.427,0,.618-.327.832-.718.263-.477.495-1.031.495-1.031s-.291,1.5.5,1.5c.29,0,.581-.347.711-.525v0s.006-.011.022-.034c.031-.043.046-.069.046-.069v-.009c.118-.187.374-.614.76-1.321.5-.913.98-2.053.98-2.053a5.434,5.434,0,0,0,.192.741,6.7,6.7,0,0,0,.414.861c-.118.149-.189.235-.189.235a.009.009,0,0,0,0,.006c-.093.115-.2.238-.306.359a10.289,10.289,0,0,0-.928,1.079.281.281,0,0,0,.087.393.8.8,0,0,0,.485.072,2.281,2.281,0,0,0,.727-.155,2.615,2.615,0,0,0,.624-.3,1.267,1.267,0,0,0,.6-1.143,2.243,2.243,0,0,0-.226-.81c.034-.046.071-.095.105-.144a15.007,15.007,0,0,0,1.085-1.74,5.434,5.434,0,0,0,.192.741,4.888,4.888,0,0,0,.352.738,3.189,3.189,0,0,0-1.054,1.266c-.229.611-.049.887.288.95a1.106,1.106,0,0,0,.529-.1,2.532,2.532,0,0,0,.668-.319,1.376,1.376,0,0,0,.736-1.137,2.008,2.008,0,0,0-.167-.672,4.044,4.044,0,0,1,1.92-.207c1.722.187,2.059,1.186,1.994,1.6a1.074,1.074,0,0,1-.547.718c-.121.069-.158.095-.148.146.015.075.071.072.173.055a1.28,1.28,0,0,0,.937-1.111c.049-.976-.961-2.05-2.752-2.041ZM3.766,13.2a1.78,1.78,0,0,1-1.709.611c-.368-.2-.223-1.048.479-1.663a9.15,9.15,0,0,1,1.342-.93l.353-.2L4.267,11c.028-.017.059-.032.09-.049A2.177,2.177,0,0,1,3.766,13.2Zm4.155-2.624c-.2.451-.615,1.6-.869,1.539-.216-.052-.349-.927-.043-1.788a3.887,3.887,0,0,1,.677-1.151c.312-.324.655-.428.736-.3A5.491,5.491,0,0,1,7.921,10.576ZM11.354,12.1c-.083.04-.161.066-.2.046s.034-.069.034-.069.43-.428.6-.623c.1-.115.213-.25.337-.4,0,.014,0,.029,0,.046,0,.514-.536.861-.777,1ZM14,11.538c-.062-.04-.053-.175.155-.594a2.256,2.256,0,0,1,.588-.7.972.972,0,0,1,.059.31,1.032,1.032,0,0,1-.8.988Z" transform="translate(2019.944 -2170.628)" fill="#ff6868"/>
  </g>
</svg>
