<svg xmlns="http://www.w3.org/2000/svg" width="58" height="55" viewBox="0 0 58 55">
  <g id="Raggruppa_55" data-name="Raggruppa 55" transform="translate(-1910 2202)">
    <ellipse id="Ellisse_24" data-name="Ellisse 24" cx="29" cy="27.5" rx="29" ry="27.5" transform="translate(1910 -2202)" fill="#fff"/>
    <path id="Icon_awesome-html5" data-name="Icon awesome-html5" d="M0,2.25,2.454,30.08l11.011,3.67,11.081-3.67L27,2.25Zm21.67,8.993H8.747l.288,3.473H21.382l-.956,10.434-6.884,1.9v.021h-.077l-6.94-1.92L6.1,19.821H9.457L9.7,22.5l3.762,1.02,3.776-1.02.422-4.373H5.927l-.9-10.237H21.98l-.309,3.354Z" transform="translate(1923.722 -2194.25)" fill="#ff5700"/>
    <path id="Icon_awesome-bootstrap" data-name="Icon awesome-bootstrap" d="M9.358,11.141a1.271,1.271,0,0,1-1.406,1.316H5.362V9.862h2.59c1.363,0,1.406,1.013,1.406,1.279ZM7.753,8.818A1.148,1.148,0,0,0,8.984,7.665c0-.493-.112-1.139-1.231-1.139H5.362V8.818Zm6.591-4.2v9.486a2.388,2.388,0,0,1-2.391,2.372H2.391A2.388,2.388,0,0,1,0,14.108V4.622A2.388,2.388,0,0,1,2.391,2.25h9.562A2.388,2.388,0,0,1,14.343,4.622Zm-3.52,6.708A1.99,1.99,0,0,0,9.253,9.19V9.167a1.82,1.82,0,0,0,1.2-1.767c0-.222.064-2.058-2.484-2.058H3.9v8.3c4.105,0,4.478.053,5.238-.181a2.14,2.14,0,0,0,1.688-2.132Z" transform="translate(1946.551 -2173.202)" fill="#650097"/>
  </g>
</svg>
