<svg xmlns="http://www.w3.org/2000/svg" width="58" height="55" viewBox="0 0 58 55">
  <g id="Raggruppa_59" data-name="Raggruppa 59" transform="translate(-1910 2058)">
    <ellipse id="Ellisse_28" data-name="Ellisse 28" cx="29" cy="27.5" rx="29" ry="27.5" transform="translate(1910 -2058)" fill="#fff"/>
    <path id="Icon_awesome-wordpress" data-name="Icon awesome-wordpress" d="M4.338,11.911l7.137,19.547A14.962,14.962,0,0,1,4.338,11.911ZM28.1,17.248a7.888,7.888,0,0,0-1.23-4.127A7,7,0,0,1,25.4,9.612a2.589,2.589,0,0,1,2.51-2.658c.063,0,.127.007.2.014A14.957,14.957,0,0,0,5.5,9.78c.352.014.682.021.963.021,1.561,0,3.987-.19,3.987-.19a.617.617,0,0,1,.1,1.23s-.809.091-1.709.141l5.449,16.2,3.277-9.816-2.327-6.384c-.809-.049-1.568-.141-1.568-.141a.617.617,0,0,1,.091-1.23s2.468.19,3.937.19c1.561,0,3.987-.19,3.987-.19a.617.617,0,0,1,.1,1.23s-.809.091-1.709.141l5.407,16.08,1.491-4.985A18.464,18.464,0,0,0,28.1,17.248Zm-9.837,2.06L13.774,32.351a14.9,14.9,0,0,0,9.19-.239,1.121,1.121,0,0,1-.105-.2l-4.6-12.6Zm12.867-8.487a11.654,11.654,0,0,1,.1,1.54,14.053,14.053,0,0,1-1.139,5.358L25.516,30.93a14.973,14.973,0,0,0,5.611-20.109ZM35.438,18A17.438,17.438,0,1,1,18,.563,17.457,17.457,0,0,1,35.438,18Zm-.8,0A16.636,16.636,0,1,0,18,34.636,16.656,16.656,0,0,0,34.636,18Z" transform="translate(1917.469 -2052.063)" fill="#186aa5"/>
    <path id="Icon_awesome-elementor" data-name="Icon awesome-elementor" d="M15.138,2.25H.8a.759.759,0,0,0-.8.718V15.9a.759.759,0,0,0,.8.718H15.138a.759.759,0,0,0,.8-.718V2.968a.759.759,0,0,0-.8-.718M5.844,12.623H4.428V6.242H5.844Zm5.666,0H7.259V11.347h4.25Zm0-2.552H7.259V8.795h4.25Zm0-2.556H7.259V6.239h4.25Z" transform="translate(1944.939 -2028.71)" fill="#e5004e"/>
  </g>
</svg>
